# xmcd
#
# Track frame offsets:
#	150
#	18708
#	38296
#	51762
#	69928
#	89795
#	107709
#	129352
#	146297
#	170070
#	202432
#	224925
#
# Disc length: 3361 seconds
#
# Revision: 1
# Processed by: cddbd v1.5.2PL0 Copyright (c) Steve Scherf et al.
# Submitted via: audiograbber 1.83.01
#
DISCID=b90d1f0c
DTITLE=The Charlie Daniels Band - Hits Of The South
DYEAR=2013
DGENRE=Southern Rock
TTITLE0=Signed Sealed Delivered I'm Yours (With Bonnie Bramlett)
TTITLE1=Long Haired Country Boy (With Brooks and Dunn)
TTITLE2=Southern Boy (With Travis Tritt)
TTITLE3=The Night They Drove Old Dixie Down (With Vince Gill)
TTITLE4=Statesboro Blues
TTITLE5=The South's Gonna Do It (Again)
TTITLE6=Sharp Dressed Man
TTITLE7=The Devil Went Down To Georgia
TTITLE8=In Memory Of Elizabeth Reed
TTITLE9=Freebird
TTITLE10=Birmingham Blues
TTITLE11=Can't You See
EXTD=
EXTT0=
EXTT1=
EXTT2=
EXTT3=
EXTT4=
EXTT5=
EXTT6=
EXTT7=
EXTT8=
EXTT9=
EXTT10=
EXTT11=
PLAYORDER=
